<svg width="48" height="46" viewBox="0 0 48 46" fill="none" xmlns="http://www.w3.org/2000/svg">
<path d="M34 10H16.5L7.5 29L28 36.5L39.5 27L34 10Z" stroke="#698791" stroke-width="2"/>
<circle cx="16.5" cy="9.5" r="3.5" fill="#698791"/>
<circle cx="34.5" cy="10.5" r="3.5" fill="#698791"/>
<circle cx="7.5" cy="28.5" r="3.5" fill="#698791"/>
<path fill-rule="evenodd" clip-rule="evenodd" d="M46.2318 41C46.7293 39.5925 47 38.0779 47 36.5C47 37.8964 46.7836 39.2785 46.3584 40.6089C46.2843 40.8399 46.0048 40.9973 45.8268 41H21.1715C20.9291 40.9973 20.7157 40.8398 20.6416 40.6089C20.2164 39.2785 20 37.8964 20 36.5C20 29.0562 26.0556 23 33.5 23C40.8512 23 46.8482 28.9056 46.9972 36.2212C46.8487 28.8941 40.8627 23 33.5 23C26.0442 23 20 29.0442 20 36.5C20 38.0779 20.2707 39.5925 20.7682 41H21.1715C21.1736 41 21.1757 41 21.1778 41H45.8223C45.8238 41 45.8253 41 45.8268 41H46.2318ZM39.3162 29.8901L32.731 35.6799C32.7222 35.6876 32.7134 35.6953 32.7057 35.7035C32.4926 35.9156 32.375 36.1984 32.375 36.5C32.375 37.1202 32.8793 37.625 33.5 37.625C33.7989 37.625 34.0812 37.5086 34.3207 37.269L40.1105 30.6838C40.3061 30.4613 40.2951 30.1246 40.0853 29.9148C39.8754 29.7056 39.5403 29.6945 39.3162 29.8901ZM45.836 37.0625H44.1875C43.8766 37.0625 43.625 36.8109 43.6249 36.5C43.6249 36.1891 43.8765 35.9375 44.1874 35.9375H45.8464C45.7631 34.0961 45.2832 32.3587 44.4781 30.8113L43.0372 31.6435C42.9482 31.6946 42.8515 31.7187 42.7559 31.7187C42.5626 31.7187 42.3725 31.6182 42.2693 31.4375C42.1133 31.1683 42.2055 30.8245 42.4747 30.669L43.9124 29.8386C42.9462 28.3337 41.6658 27.0534 40.1608 26.0872L39.3304 27.5258C39.2272 27.706 39.0371 27.8071 38.8437 27.8071C38.7482 27.8071 38.6515 27.7829 38.5625 27.7318C38.2933 27.5763 38.2011 27.2325 38.357 26.9633L39.189 25.522C37.6415 24.7167 35.9041 24.2368 34.0625 24.1535V25.8125C34.0625 26.1234 33.8109 26.375 33.4999 26.375C33.189 26.375 32.9374 26.1234 32.9374 25.8125V24.1535C31.0958 24.2368 29.3583 24.7167 27.8109 25.522L28.6428 26.9633C28.7988 27.2325 28.7066 27.5763 28.4374 27.7318C28.3484 27.7829 28.2518 27.8071 28.1562 27.8071C27.9628 27.8071 27.7727 27.706 27.6695 27.5258L26.8391 26.0872C25.3341 27.0534 24.0537 28.3337 23.0875 29.8386L24.5252 30.669C24.7943 30.8245 24.8866 31.1683 24.7306 31.4375C24.6274 31.6182 24.4373 31.7187 24.244 31.7187C24.1484 31.7187 24.0517 31.6946 23.9627 31.6435L22.5218 30.8113C21.7167 32.3587 21.2368 34.0961 21.1535 35.9375H22.8125C23.1234 35.9375 23.375 36.1891 23.375 36.5C23.375 36.8109 23.1234 37.0625 22.8125 37.0625H21.164C21.2075 38.0138 21.3347 38.9581 21.5952 39.875H45.4048C45.6653 38.9582 45.7925 38.0138 45.836 37.0625Z" fill="#698791"/>
</svg>
