<svg width="46" height="46" viewBox="0 0 46 46" fill="none" xmlns="http://www.w3.org/2000/svg">
<path d="M12 10L11.0025 10.0712L10.888 8.46714L12.3773 9.07391L12 10ZM25.8773 14.5739C26.3888 14.7823 26.6345 15.3658 26.4261 15.8773C26.2177 16.3888 25.6342 16.6345 25.1227 16.4261L25.8773 14.5739ZM13.9975 23.9288C14.0368 24.4796 13.6221 24.9581 13.0712 24.9975C12.5204 25.0368 12.0419 24.6221 12.0025 24.0712L13.9975 23.9288ZM30.7176 35.1227L11.2176 10.6227L12.7824 9.37725L32.2824 33.8773L30.7176 35.1227ZM12.3773 9.07391L25.8773 14.5739L25.1227 16.4261L11.6227 10.9261L12.3773 9.07391ZM12.9975 9.92875L13.9975 23.9288L12.0025 24.0712L11.0025 10.0712L12.9975 9.92875Z" fill="white"/>
<circle r="3.5" transform="matrix(-1 0 0 1 31.5 34.5)" fill="white"/>
</svg>
